<?xml version="1.0" encoding="utf-8"?>
<!-- Generator: Adobe Illustrator 21.0.0, SVG Export Plug-In . SVG Version: 6.00 Build 0)  -->
<svg version="1.1" id="Layer_1" xmlns="http://www.w3.org/2000/svg" xmlns:xlink="http://www.w3.org/1999/xlink" x="0px" y="0px"
	 viewBox="0 0 307 95" style="enable-background:new 0 0 307 95;" xml:space="preserve">
<g>
	<g>
		<path d="M11.4,42.1c0,0,25.3,0,38.7,5.6c0,0,30.5,6.8,27.7,46.8H53.1c0,0,2-19.7-2.2-28.7c0,0-6-17.4-28.3-18.6L23.4,78l-12,17.2
			V42.1z"/>
		<path d="M11.3,5.4c0,0,11.7-0.2,11.7,0S23,16,23,16h10.2v11.7H23v10.7H11.3V27.7h-11V16h10.9V5.4H11.3z"/>
		<path d="M72.8,17.7c-1.7-3.7-4.1-6.3-4.3-6.6c-14.2-14.8-40-10.3-40-10.3h-0.4v9.4c22.7-1.1,26.4,14.3,26.4,14.3
			c0.9,2.9,1,5.9,0.8,8.7c0.4-2,0.2-1.2,0,0.2c-0.1,1.4-0.4,2.8-0.7,4.2c-0.3,1.7-0.9,3.5-1.7,5.2c-0.9,2.1-1.9,4-2.8,5.6
			c-2.6,3.9-5.9,7.1-7.4,8.4c-0.2,0.2-0.5,0.4-0.7,0.6l0,0l0,0c0,0,0,0-0.1,0.1c-4.1,4.2-7.6,7-7.6,7c-20.5,20-22.9,30.7-22.9,30.7
			c7.8-11.1,22.5-19.9,30.7-24.3l0,0l0,0c0.7-0.4,1.3-0.7,1.9-1l0,0l0,0c0.1,0,0.1-0.1,0.2-0.1C45.9,69,57.8,62.6,66.8,52l0.2-0.3
			c0.7-0.8,1.3-1.6,2-2.5c6-8.4,6.4-18.2,6.4-18.8C75.4,25.1,74,20.6,72.8,17.7z"/>
	</g>
	<g>
		<path d="M120.4,54l-6.9-10h-0.4h-7.2v10h-8.3V18.1h15.5c3.2,0,5.9,0.5,8.3,1.6c2.3,1.1,4.1,2.6,5.4,4.5s1.9,4.2,1.9,6.9
			s-0.6,5-1.9,6.9c-1.3,1.9-3.1,3.4-5.4,4.4l8,11.5L120.4,54L120.4,54z M118.3,26.5c-1.3-1.1-3.2-1.6-5.7-1.6h-6.8v12.5h6.8
			c2.5,0,4.4-0.5,5.7-1.6c1.3-1.1,1.9-2.6,1.9-4.6C120.2,29.1,119.6,27.6,118.3,26.5z"/>
		<path d="M162.9,47.3V54h-27.7V18.1h27.1v6.7h-18.8v7.8H160V39h-16.6v8.3H162.9z"/>
		<path d="M173,53.4c-2.6-0.8-4.8-1.8-6.4-3l2.8-6.2c1.5,1.1,3.4,2,5.5,2.7s4.2,1,6.3,1c2.4,0,4.1-0.3,5.2-1
			c1.1-0.7,1.7-1.6,1.7-2.8c0-0.9-0.3-1.6-1-2.1c-0.7-0.6-1.5-1-2.6-1.4c-1-0.3-2.4-0.7-4.2-1.1c-2.7-0.6-5-1.3-6.7-1.9
			c-1.7-0.6-3.2-1.7-4.5-3.1c-1.2-1.4-1.9-3.3-1.9-5.7c0-2.1,0.6-4,1.7-5.7c1.1-1.7,2.8-3,5.1-4s5-1.5,8.3-1.5
			c2.3,0,4.5,0.3,6.7,0.8s4.1,1.3,5.7,2.4l-2.6,6.3c-3.3-1.9-6.6-2.8-9.9-2.8c-2.3,0-4,0.4-5.1,1.1c-1.1,0.8-1.7,1.7-1.7,3
			s0.6,2.1,1.9,2.7c1.3,0.6,3.2,1.2,5.9,1.8c2.7,0.6,5,1.3,6.7,1.9c1.7,0.6,3.2,1.7,4.5,3.1c1.2,1.4,1.9,3.3,1.9,5.7
			c0,2-0.6,3.9-1.7,5.6c-1.1,1.7-2.9,3-5.1,4c-2.3,1-5.1,1.5-8.3,1.5C178.4,54.6,175.7,54.2,173,53.4z"/>
		<path d="M209.3,52.2c-3-1.6-5.3-3.8-7-6.6s-2.5-6-2.5-9.5s0.8-6.7,2.5-9.5s4-5,7-6.6c2.9-1.6,6.3-2.4,9.9-2.4
			c3.1,0,5.9,0.5,8.4,1.6s4.6,2.7,6.3,4.7l-5.3,4.9c-2.4-2.8-5.4-4.2-9-4.2c-2.2,0-4.2,0.5-5.9,1.5s-3.1,2.3-4.1,4.1
			c-1,1.7-1.5,3.7-1.5,5.9s0.5,4.2,1.5,5.9s2.3,3.1,4.1,4.1c1.7,1,3.7,1.5,5.9,1.5c3.6,0,6.6-1.4,9-4.2l5.3,4.9
			c-1.7,2.1-3.8,3.7-6.3,4.8s-5.3,1.6-8.4,1.6C215.6,54.6,212.3,53.8,209.3,52.2z"/>
		<path d="M243.3,50.3c-2.8-2.8-4.3-6.9-4.3-12.1V18.1h8.3v19.7c0,6.4,2.7,9.6,8,9.6c2.6,0,4.6-0.8,5.9-2.3c1.4-1.6,2-4,2-7.3V18.1
			h8.2v20.1c0,5.3-1.4,9.3-4.3,12.1c-2.8,2.8-6.8,4.2-11.9,4.2C250.1,54.6,246.1,53.2,243.3,50.3z"/>
		<path d="M306.3,47.3V54h-26.7V18.1h27.1v6.7h-18.8v7.8h16.6V39h-16.6v8.3H306.3z"/>
	</g>
	<g>
		<path d="M142.6,64.6v11.1h-1.2v-5.1h-7v5.1h-1.2V64.6h1.2v5h7v-5H142.6z"/>
		<path d="M153.3,71.9h-7c0.1,0.9,0.4,1.6,1,2.1s1.4,0.8,2.3,0.8c0.5,0,1-0.1,1.4-0.3c0.4-0.2,0.8-0.5,1.1-0.8l0.6,0.7
			c-0.4,0.4-0.8,0.8-1.4,1c-0.6,0.2-1.2,0.4-1.8,0.4c-0.9,0-1.6-0.2-2.3-0.5c-0.7-0.4-1.2-0.9-1.6-1.5c-0.4-0.6-0.6-1.4-0.6-2.2
			c0-0.8,0.2-1.5,0.5-2.2c0.4-0.6,0.8-1.2,1.5-1.5s1.3-0.5,2.1-0.5s1.5,0.2,2.1,0.5c0.6,0.4,1.1,0.9,1.4,1.5
			c0.3,0.6,0.5,1.4,0.5,2.2L153.3,71.9z M147.2,69.1c-0.5,0.5-0.9,1.2-0.9,2h5.9c-0.1-0.8-0.4-1.5-0.9-2s-1.2-0.8-2-0.8
			C148.4,68.3,147.8,68.6,147.2,69.1z"/>
		<path d="M155.6,64h1.1v11.8h-1.1V64z"/>
		<path d="M166.3,67.9c0.6,0.4,1.1,0.9,1.5,1.5s0.5,1.4,0.5,2.2c0,0.8-0.2,1.6-0.5,2.2c-0.4,0.6-0.9,1.1-1.5,1.5s-1.3,0.5-2.1,0.5
			c-0.7,0-1.3-0.1-1.8-0.4s-1-0.7-1.3-1.2v4.7H160V67.4h1.1v1.7c0.3-0.6,0.8-1,1.3-1.3c0.6-0.3,1.2-0.4,1.9-0.4
			C165,67.3,165.7,67.5,166.3,67.9z M165.7,74.4c0.5-0.3,0.9-0.7,1.1-1.2c0.3-0.5,0.4-1.1,0.4-1.7s-0.1-1.2-0.4-1.7
			c-0.3-0.5-0.6-0.9-1.1-1.2c-0.5-0.3-1-0.4-1.6-0.4s-1.1,0.1-1.6,0.4s-0.8,0.7-1.1,1.2s-0.4,1.1-0.4,1.7s0.1,1.2,0.4,1.7
			c0.3,0.5,0.6,0.9,1.1,1.2c0.5,0.3,1,0.4,1.6,0.4C164.7,74.9,165.2,74.7,165.7,74.4z"/>
		<path d="M171.3,64.1c0.2,0.2,0.2,0.4,0.2,0.6c0,0.1,0,0.3-0.1,0.4c0,0.1-0.1,0.3-0.2,0.5l-0.7,2.2h-0.8l0.6-2.3
			c-0.2-0.1-0.3-0.2-0.4-0.3c-0.1-0.1-0.2-0.3-0.2-0.5c0-0.3,0.1-0.5,0.2-0.6c0.2-0.2,0.4-0.2,0.6-0.2C171,63.9,171.2,64,171.3,64.1
			z"/>
		<path d="M174,75.6c-0.6-0.2-1.1-0.4-1.5-0.7L173,74c0.3,0.3,0.8,0.5,1.3,0.7s1.1,0.3,1.7,0.3c0.8,0,1.3-0.1,1.7-0.4
			c0.4-0.2,0.5-0.6,0.5-1c0-0.3-0.1-0.5-0.3-0.7s-0.5-0.3-0.8-0.4s-0.7-0.2-1.2-0.3c-0.7-0.1-1.2-0.3-1.6-0.4
			c-0.4-0.1-0.8-0.4-1.1-0.7c-0.3-0.3-0.4-0.8-0.4-1.3c0-0.7,0.3-1.3,0.9-1.7c0.6-0.4,1.4-0.7,2.4-0.7c0.5,0,1.1,0.1,1.6,0.2
			s1,0.3,1.3,0.6l-0.5,0.9c-0.7-0.5-1.5-0.7-2.5-0.7c-0.7,0-1.3,0.1-1.6,0.4c-0.4,0.3-0.5,0.6-0.5,1c0,0.3,0.1,0.6,0.3,0.8
			c0.2,0.2,0.5,0.3,0.8,0.4s0.7,0.2,1.3,0.3c0.7,0.1,1.2,0.3,1.6,0.4c0.4,0.1,0.7,0.3,1,0.7c0.3,0.3,0.4,0.7,0.4,1.3
			c0,0.7-0.3,1.3-0.9,1.7c-0.6,0.4-1.5,0.6-2.5,0.6C175.3,75.9,174.6,75.8,174,75.6z"/>
		<path d="M186.9,75.3c-0.6-0.4-1.2-0.9-1.5-1.5c-0.4-0.6-0.6-1.4-0.6-2.2c0-0.8,0.2-1.5,0.6-2.2c0.4-0.6,0.9-1.2,1.5-1.5
			c0.6-0.4,1.4-0.5,2.2-0.5s1.5,0.2,2.2,0.5c0.6,0.4,1.2,0.9,1.5,1.5c0.4,0.6,0.5,1.4,0.5,2.2c0,0.8-0.2,1.5-0.5,2.2
			c-0.4,0.6-0.9,1.2-1.5,1.5c-0.6,0.4-1.4,0.5-2.2,0.5C188.3,75.9,187.6,75.7,186.9,75.3z M190.7,74.4c0.5-0.3,0.8-0.7,1.1-1.2
			s0.4-1.1,0.4-1.7s-0.1-1.2-0.4-1.7c-0.3-0.5-0.6-0.9-1.1-1.2c-0.5-0.3-1-0.4-1.6-0.4s-1.1,0.1-1.6,0.4s-0.8,0.7-1.1,1.2
			S186,71,186,71.6s0.1,1.2,0.4,1.7c0.3,0.5,0.6,0.9,1.1,1.2c0.5,0.3,1,0.4,1.6,0.4C189.7,74.9,190.2,74.7,190.7,74.4z"/>
		<path d="M202.4,68.3c0.6,0.6,0.9,1.5,0.9,2.7v4.9h-1.1V71c0-0.9-0.2-1.5-0.7-2c-0.4-0.5-1.1-0.7-1.9-0.7c-0.9,0-1.6,0.3-2.1,0.8
			s-0.8,1.3-0.8,2.2v4.4h-1.1v-8.4h1.1v1.5c0.3-0.5,0.7-0.9,1.3-1.2s1.2-0.4,1.9-0.4C201,67.3,201.8,67.6,202.4,68.3z"/>
		<path d="M215,75.3c-0.2,0.2-0.5,0.3-0.8,0.4s-0.6,0.2-1,0.2c-0.8,0-1.4-0.2-1.8-0.6c-0.4-0.4-0.6-1-0.6-1.8v-5.1h-1.5v-1h1.5v-1.8
			h1.1v1.8h2.5v1h-2.5v5c0,0.5,0.1,0.9,0.4,1.1c0.2,0.3,0.6,0.4,1.1,0.4c0.2,0,0.5,0,0.7-0.1s0.4-0.2,0.6-0.3L215,75.3z"/>
		<path d="M223.8,68.3c0.6,0.6,0.9,1.5,0.9,2.7v4.9h-1.1V71c0-0.9-0.2-1.5-0.7-2c-0.4-0.5-1.1-0.7-1.9-0.7c-0.9,0-1.6,0.3-2.1,0.8
			s-0.8,1.3-0.8,2.2v4.4H217V64h1.1v4.9c0.3-0.5,0.7-0.9,1.3-1.1c0.5-0.3,1.2-0.4,1.9-0.4C222.4,67.3,223.2,67.6,223.8,68.3z"/>
		<path d="M235.1,71.9h-7c0.1,0.9,0.4,1.6,1,2.1s1.4,0.8,2.3,0.8c0.5,0,1-0.1,1.4-0.3c0.4-0.2,0.8-0.5,1.1-0.8l0.6,0.7
			c-0.4,0.4-0.8,0.8-1.4,1c-0.6,0.2-1.2,0.4-1.8,0.4c-0.9,0-1.6-0.2-2.3-0.5c-0.7-0.4-1.2-0.9-1.6-1.5c-0.4-0.6-0.6-1.4-0.6-2.2
			c0-0.8,0.2-1.5,0.5-2.2c0.4-0.6,0.8-1.2,1.5-1.5c0.6-0.4,1.3-0.5,2.1-0.5s1.5,0.2,2.1,0.5c0.6,0.4,1.1,0.9,1.4,1.5
			c0.3,0.6,0.5,1.4,0.5,2.2L235.1,71.9z M229.1,69.1c-0.5,0.5-0.9,1.2-0.9,2h5.9c-0.1-0.8-0.4-1.5-0.9-2s-1.2-0.8-2-0.8
			C230.3,68.3,229.6,68.6,229.1,69.1z"/>
		<path d="M253.9,67.4l-3.2,8.4h-1.1l-2.6-6.9l-2.6,6.9h-1.1l-3.1-8.4h1.1l2.6,7.1l2.7-7.1h1l2.7,7.1l2.7-7.1H253.9z"/>
		<path d="M260.8,68.2c0.6,0.5,0.9,1.4,0.9,2.4v5.2h-1.1v-1.3c-0.3,0.4-0.6,0.8-1.1,1s-1.1,0.4-1.8,0.4c-0.9,0-1.7-0.2-2.2-0.7
			c-0.6-0.4-0.8-1-0.8-1.8c0-0.7,0.3-1.3,0.8-1.7c0.5-0.4,1.3-0.7,2.5-0.7h2.7v-0.5c0-0.7-0.2-1.3-0.6-1.6c-0.4-0.4-1-0.6-1.8-0.6
			c-0.5,0-1,0.1-1.5,0.3s-0.9,0.4-1.3,0.7l-0.5-0.8c0.4-0.4,0.9-0.6,1.5-0.8c0.6-0.2,1.2-0.3,1.9-0.3
			C259.4,67.3,260.2,67.6,260.8,68.2z M259.5,74.5c0.5-0.3,0.8-0.7,1-1.3v-1.4h-2.6c-1.4,0-2.1,0.5-2.1,1.5c0,0.5,0.2,0.9,0.6,1.2
			c0.4,0.3,0.9,0.4,1.6,0.4C258.5,75,259,74.8,259.5,74.5z"/>
		<path d="M271.6,67.4l-4.2,9.4c-0.3,0.8-0.7,1.3-1.2,1.7c-0.4,0.3-1,0.5-1.6,0.5c-0.4,0-0.8-0.1-1.1-0.2c-0.3-0.1-0.7-0.3-0.9-0.6
			l0.5-0.8c0.4,0.4,0.9,0.6,1.5,0.6c0.4,0,0.7-0.1,1-0.3c0.3-0.2,0.5-0.6,0.8-1.1l0.4-0.8l-3.7-8.4h1.2l3.1,7.1l3.1-7.1
			C270.5,67.4,271.6,67.4,271.6,67.4z"/>
	</g>
</g>
<image style="display:none;overflow:visible;enable-background:new    ;" width="307" height="95" xlink:href="logo.png" >
</image>
</svg>
